<svg width="550" height="300" viewBox="0 0 550 300" fill="none" xmlns="http://www.w3.org/2000/svg">
<rect width="550" height="300" fill="#CCCCCC"/>
<g clip-path="url(#clip0)">
<path d="M239.425 184.251C231.887 184.251 225.182 179.425 222.748 172.24L222.583 171.698C222.009 169.795 221.768 168.195 221.768 166.594V134.491L210.346 172.621C208.877 178.229 212.224 184.043 217.841 185.592L290.648 205.091C291.557 205.326 292.466 205.439 293.361 205.439C298.05 205.439 302.335 202.327 303.536 197.74L307.777 184.251H239.425Z" fill="#ECEFF1"/>
<path d="M323 112.447V166.594C323 172.433 318.245 177.188 312.406 177.188H239.425C238.954 177.188 238.483 177.141 238.059 177.093C233.116 176.482 229.255 172.433 228.878 167.442C228.831 167.159 228.831 166.876 228.831 166.594V112.447C228.831 106.608 233.587 101.853 239.425 101.853H312.406C318.245 101.853 323 106.608 323 112.447V112.447Z" fill="#ECEFF1"/>
<path d="M261.79 125.395C261.79 130.595 257.574 134.812 252.373 134.812C247.172 134.812 242.956 130.595 242.956 125.395C242.956 120.195 247.172 115.978 252.373 115.978C257.574 115.978 261.79 120.195 261.79 125.395Z" fill="#FFC107"/>
<path d="M323 153.363V166.594C323 172.433 318.245 177.188 312.406 177.188H239.425C238.954 177.188 238.483 177.141 238.059 177.093L286.557 128.597C289.759 125.395 295.031 125.395 298.233 128.597L323 153.363Z" fill="#388E3C"/>
<path d="M295.031 177.188H239.425C238.954 177.188 238.483 177.141 238.059 177.093C233.116 176.482 229.255 172.433 228.878 167.442L251.243 145.076C254.445 141.875 259.718 141.875 262.92 145.076L295.031 177.188Z" fill="#4CAF50"/>
</g>
<defs>
<clipPath id="clip0">
<rect width="113" height="113" fill="white" transform="translate(210 97)"/>
</clipPath>
</defs>
</svg>
